<svg width="100" height="146" viewBox="0 0 100 146" fill="none" xmlns="http://www.w3.org/2000/svg">
<path d="M53.4596 115.033C49.1416 127.549 42.8884 136.29 22.9425 146C26.5217 142.412 35.2305 124.879 43.9392 97.8861C52.0341 96.8431 66.5904 91.9514 69.3893 82.241C58.7868 97.5732 29.1437 97.2082 18.0106 88.4991C24.5136 87.0597 30.7356 85.2866 36.8536 83.4405C23.0153 85.1823 7.65789 78.0482 0.905208 68.4004C7.73072 69.3808 15.8464 68.7654 24.139 68.0144C12.7666 63.7277 3.12142 53.9651 0 44.2965C18.0314 53.3498 30.1738 52.0982 55.0099 61.7355C56.5082 57.1985 57.9024 53.3915 59.2758 50.325C60.7656 46.9922 63.0228 44.0611 65.862 41.7724C57.0388 37.7881 49.4538 29.9239 47.2167 23.5719C54.6249 26.8366 58.4643 28.7244 63.7082 28.9539C65.1337 31.7178 67.3395 36.6825 72.3962 38.4452C64.1661 28.4741 62.4909 12.078 68.0574 3.30634C71.5222 11.7964 73.3951 16.8133 76.6934 20.9019C76.0379 25.9813 76.3605 32.4896 79.5547 36.3488C75.6425 21.851 87.9513 4.01557 100 0C94.267 14.8837 90.1259 26.3359 88.8566 37.7673C91.7907 39.4778 93.2473 42.4816 91.8947 46.6537C96.9826 47.6237 99.7087 51.4932 98.6162 56.7291C93.4138 54.7265 88.7421 58.2832 88.7421 58.2832C98.0231 101.829 64.1036 114.293 53.4596 115.033Z" fill="#25BFD5"/>
</svg>
